HIERARCHY
ROOT SimulationBone
{
	OFFSET 0.000000 0.000000 0.000000
	CHANNELS 6 Xposition Yposition Zposition Zrotation Yrotation Xrotation 
	JOINT Hips
	{
		OFFSET 0.000000 0.000000 0.000000
		CHANNELS 6 Xposition Yposition Zposition Zrotation Yrotation Xrotation 
		JOINT RightUpLeg
		{
			OFFSET 0.103455 1.857827 10.548507
			CHANNELS 3 Zrotation Yrotation Xrotation
			JOINT RightLeg
			{
				OFFSET 43.500000 -0.000031 0.000008
				CHANNELS 3 Zrotation Yrotation Xrotation
				JOINT RightFoot
				{
					OFFSET 42.372192 0.000011 -0.000014
					CHANNELS 3 Zrotation Yrotation Xrotation
					JOINT RightToe
					{
						OFFSET 17.299997 -0.000002 0.000013
						CHANNELS 3 Zrotation Yrotation Xrotation
						End Site
						{
							OFFSET 0.000000 0.000000 0.000000
						}
					}
				}
			}
		}
		JOINT LeftUpLeg
		{
			OFFSET 0.103457 1.857826 -10.548499
			CHANNELS 3 Zrotation Yrotation Xrotation
			JOINT LeftLeg
			{
				OFFSET 43.500046 -0.000019 0.000015
				CHANNELS 3 Zrotation Yrotation Xrotation
				JOINT LeftFoot
				{
					OFFSET 42.372261 -0.000004 0.000013
					CHANNELS 3 Zrotation Yrotation Xrotation
					JOINT LeftToe
					{
						OFFSET 17.299992 -0.000006 0.000004
						CHANNELS 3 Zrotation Yrotation Xrotation
						End Site
						{
							OFFSET 0.000000 0.000000 0.000000
						}
					}
				}
			}
		}
		JOINT Spine
		{
			OFFSET 6.901968 -2.603730 -0.000002
			CHANNELS 3 Zrotation Yrotation Xrotation
			JOINT Spine1
			{
				OFFSET 12.588100 -0.000001 0.000009
				CHANNELS 3 Zrotation Yrotation Xrotation
				JOINT Spine2
				{
					OFFSET 12.343201 0.000005 -0.000005
					CHANNELS 3 Zrotation Yrotation Xrotation
					JOINT Neck
					{
						OFFSET 25.832893 -0.000008 -0.000006
						CHANNELS 3 Zrotation Yrotation Xrotation
						JOINT Head
						{
							OFFSET 11.766606 0.000005 0.000008
							CHANNELS 3 Zrotation Yrotation Xrotation
							End Site
							{
								OFFSET 0.000000 0.000000 0.000000
							}
						}
					}
					JOINT RightShoulder
					{
						OFFSET 19.745903 -1.480373 6.000100
						CHANNELS 3 Zrotation Yrotation Xrotation
						JOINT RightArm
						{
							OFFSET 11.284123 -0.000007 -0.000024
							CHANNELS 3 Zrotation Yrotation Xrotation
							JOINT RightForeArm
							{
								OFFSET 33.000053 0.000004 0.000036
								CHANNELS 3 Zrotation Yrotation Xrotation
								JOINT RightHand
								{
									OFFSET 25.200006 0.000021 -0.000003
									CHANNELS 3 Zrotation Yrotation Xrotation
									End Site
									{
										OFFSET 0.000000 0.000000 0.000000
									}
								}
							}
						}
					}
					JOINT LeftShoulder
					{
						OFFSET 19.746101 -1.480381 -6.000079
						CHANNELS 3 Zrotation Yrotation Xrotation
						JOINT LeftArm
						{
							OFFSET 11.284133 -0.000015 -0.000008
							CHANNELS 3 Zrotation Yrotation Xrotation
							JOINT LeftForeArm
							{
								OFFSET 33.000099 0.000016 0.000006
								CHANNELS 3 Zrotation Yrotation Xrotation
								JOINT LeftHand
								{
									OFFSET 25.199781 0.000142 0.000425
									CHANNELS 3 Zrotation Yrotation Xrotation
									End Site
									{
										OFFSET 0.000000 0.000000 0.000000
									}
								}
							}
						}
					}
				}
			}
		}
	}
}
MOTION
Frames: 13
Frame Time: 0.016667
-216.975833 0.000000 43.630150 0.000000 67.679940 0.000000 -2.219649 90.737839 2.782703 92.205291 3.313260 -179.338523 175.546257 -5.749497 161.827863 -18.284244 -4.839703 -11.107126 80.368499 7.800032 0.042518 21.454562 0.003104 0.000017 162.443072 -0.554198 177.524458 -26.856600 2.502810 0.102682 68.281550 2.027444 6.125943 21.454553 -0.003099 0.000003 9.484185 -1.281418 -2.095679 9.002409 -2.395921 -4.285548 8.684971 -2.421871 -4.271050 1.510865 8.673245 1.990230 -12.776782 -9.965282 6.685267 -154.987017 -73.722551 -27.062597 -4.225630 56.651308 27.662765 -30.596241 -15.151569 1.277361 7.231018 -4.503969 13.041357 -155.567884 73.193997 26.520499 9.946074 -68.690786 -28.025469 -27.773746 15.666285 -1.231016 16.333955 -9.597682 -47.879690 
-217.026255 0.000000 43.829444 0.000000 67.431584 0.000000 -2.274811 90.752269 2.860311 92.054771 3.364655 -179.622050 175.382082 -5.891061 161.828648 -18.098453 -4.975535 -11.396618 80.196840 7.993185 -0.000385 21.454563 0.003108 0.000017 162.584928 -0.265290 178.082961 -25.977020 2.700964 -0.013168 69.294025 1.922198 5.759484 21.454550 -0.003094 0.000003 9.470509 -1.321326 -2.123444 8.977279 -2.473931 -4.343929 8.659858 -2.500234 -4.328950 1.617897 8.573271 1.897240 -12.508700 -9.773562 6.476775 -155.742837 -73.748988 -26.287385 -6.090814 55.062549 27.035052 -30.499567 -14.930091 1.262521 7.045532 -3.857254 12.373872 -155.519080 73.159214 26.571281 8.644651 -68.463275 -27.192247 -28.023098 15.818042 -1.245095 15.099256 -8.289016 -46.892083 
-217.061270 0.000000 44.027149 0.000000 67.162387 0.000000 -2.325146 90.788300 2.937480 91.922482 3.449492 -179.829940 175.209392 -6.061006 161.791431 -17.952203 -5.042898 -11.633190 80.015631 8.145096 -0.066824 21.454562 0.003104 0.000017 162.842898 -0.006895 178.656971 -24.939297 2.888057 0.368493 70.062003 1.571769 5.692107 21.454551 -0.003092 0.000001 9.453042 -1.345240 -2.130705 8.943510 -2.521772 -4.359986 8.626079 -2.548174 -4.344714 1.783234 8.460001 1.743294 -12.382711 -9.597474 6.219639 -156.695015 -73.780820 -25.310826 -8.238707 53.422507 26.304533 -29.986210 -14.623824 1.231501 6.952025 -3.393737 11.730232 -155.502136 73.202289 26.587708 7.445761 -68.359208 -26.329328 -28.355533 15.976565 -1.261312 13.975632 -6.637103 -45.594076 
-217.080520 0.000000 44.223140 0.000000 66.872462 0.000000 -2.370825 90.840055 3.011775 91.798741 3.555670 -179.974326 175.026915 -6.248100 161.692521 -17.837121 -5.047707 -11.810022 79.829913 8.252752 -0.147891 21.454559 0.003098 0.000016 163.176478 0.233747 179.305757 -23.814843 2.995564 1.056711 70.561963 1.061172 5.760254 21.454552 -0.003092 -0.000001 9.429923 -1.357306 -2.120435 8.897578 -2.547549 -4.339950 8.580121 -2.573831 -4.324524 1.998224 8.356638 1.551068 -12.386349 -9.429943 5.937178 -157.815125 -73.851125 -24.161453 -10.503552 51.799710 25.433348 -29.228681 -14.288030 1.194809 7.017098 -2.956657 11.225799 -155.528781 73.281848 26.558643 6.265918 -68.331309 -25.422001 -28.752786 16.153276 -1.279952 13.014376 -4.840601 -44.165310 
-217.083648 0.000000 44.417291 0.000000 66.561940 0.000000 -2.412075 90.901657 3.080753 91.673878 3.671029 179.932682 174.833554 -6.441296 161.508156 -17.744599 -4.995749 -11.920455 79.644820 8.313208 -0.234610 21.454558 0.003096 0.000016 163.545943 0.469409 -179.911650 -22.678405 2.961921 1.857433 70.771516 0.480848 5.804917 21.454553 -0.003093 -0.000002 9.399306 -1.361668 -2.095605 8.836009 -2.559350 -4.290055 8.518521 -2.585330 -4.274559 2.254012 8.286286 1.343411 -12.507092 -9.264005 5.652850 -159.085692 -73.993129 -22.856849 -12.737576 50.262101 24.360248 -28.398659 -13.978247 1.160207 7.306137 -2.389152 10.976913 -155.611378 73.356480 26.472309 5.031066 -68.331416 -24.465175 -29.196630 16.359601 -1.301402 12.247349 -3.107819 -42.772464 
-217.070297 0.000000 44.609477 0.000000 66.230965 0.000000 -2.447761 90.966707 3.141518 91.544718 3.784140 179.877799 174.633840 -6.630995 161.234164 -17.669038 -4.898387 -11.969842 79.467219 8.331009 -0.321499 21.454558 0.003103 0.000016 163.913247 0.707194 -178.976168 -21.613460 2.752698 2.619506 70.713273 -0.094853 5.723909 21.454551 -0.003092 -0.000001 9.360761 -1.361688 -2.059018 8.758145 -2.563659 -4.216160 8.440628 -2.589188 -4.200639 2.535651 8.260982 1.138057 -12.722266 -9.091783 5.382237 -160.488514 -74.223396 -21.415937 -14.835109 48.862651 23.033946 -27.634684 -13.739257 1.131438 7.845797 -1.609262 11.087104 -155.748997 73.400404 26.330222 3.685134 -68.322658 -23.443795 -29.675641 16.599813 -1.325855 11.685727 -1.622590 -41.538421 
-217.040109 0.000000 44.799572 0.000000 65.879691 0.000000 -2.471123 91.026703 3.189304 91.434280 3.886377 179.843027 174.454124 -6.812391 160.944966 -17.617713 -4.789575 -12.011284 79.310660 8.340432 -0.417281 21.454558 0.003111 0.000017 164.243647 0.932603 -178.028280 -20.728933 2.411350 3.373333 70.578693 -0.663247 5.630955 21.454551 -0.003091 0.000000 9.319527 -1.357631 -2.012806 8.674536 -2.560597 -4.122655 8.356987 -2.585558 -4.107156 2.804648 8.249090 0.931367 -12.968880 -8.901996 5.109319 -161.948005 -74.492136 -19.917428 -16.806521 47.598607 21.513439 -26.946347 -13.571652 1.108482 8.504444 -0.827727 11.595080 -155.888698 73.450587 26.185886 2.212254 -68.315412 -22.270847 -30.205356 16.849568 -1.352189 11.328077 -0.449221 -40.443451 
-216.992727 0.000000 44.987449 0.000000 65.508274 0.000000 -2.475842 91.074327 3.219528 91.367206 3.970172 179.810869 174.323322 -6.980365 160.708823 -17.594686 -4.699582 -12.094617 79.185108 8.373425 -0.531302 21.454556 0.003111 0.000018 164.514265 1.142601 -177.236571 -20.108629 2.009828 4.171700 70.550748 -1.231953 5.647089 21.454555 -0.003090 0.000000 9.281390 -1.349399 -1.959510 8.596827 -2.549538 -4.014741 8.279236 -2.573847 -3.999314 3.024309 8.215742 0.716543 -13.185063 -8.689309 4.816997 -163.364482 -74.742524 -18.464259 -18.674257 46.454780 19.857489 -26.331248 -13.461500 1.091013 9.124413 -0.278301 12.522689 -156.001232 73.550744 26.068387 0.605888 -68.322102 -20.861170 -30.799582 17.084528 -1.379043 11.141285 0.380220 -39.454655 
-216.927794 0.000000 45.172984 0.000000 65.116868 0.000000 -2.462629 91.109077 3.230819 91.348845 4.030536 179.770210 174.260624 -7.126400 160.491100 -17.577801 -4.621668 -12.208526 79.079991 8.422938 -0.660455 21.454555 0.003109 0.000019 164.752523 1.392512 -176.720899 -19.712269 1.658627 4.963656 70.620139 -1.781282 5.719938 21.454558 -0.003091 0.000000 9.248670 -1.338525 -1.903989 8.529813 -2.533108 -3.902302 8.212180 -2.556741 -3.886976 3.187930 8.157334 0.496550 -13.352724 -8.476755 4.514536 -164.679507 -74.948317 -17.116299 -20.389512 45.409822 18.007846 -25.866970 -13.381112 1.078241 9.607763 0.008174 13.918600 -156.202654 73.708187 25.858597 -1.123885 -68.322502 -19.228650 -31.438581 17.308978 -1.406427 10.960675 0.840426 -38.618787 
-216.844952 0.000000 45.356051 0.000000 64.705621 0.000000 -2.433400 91.131328 3.223440 91.378372 4.062540 179.715158 174.276219 -7.242831 160.244707 -17.548334 -4.543230 -12.331051 78.984410 8.474924 -0.800281 21.454554 0.003112 0.000020 164.982120 1.735869 -176.503893 -19.494041 1.436641 5.674630 70.743467 -2.282227 5.768970 21.454555 -0.003095 -0.000000 9.222363 -1.326887 -1.851304 8.475656 -2.514671 -3.795621 8.157992 -2.537664 -3.780403 3.298827 8.081489 0.277638 -13.470174 -8.289220 4.217779 -165.834148 -75.099808 -15.933565 -21.902785 44.446616 15.951283 -25.630822 -13.320114 1.070545 9.902317 0.050718 15.748641 -156.607165 73.912925 25.439786 -2.949807 -68.286747 -17.433439 -32.121026 17.532494 -1.435046 10.669172 0.926993 -38.022318 
-216.743844 0.000000 45.536524 0.000000 64.274669 0.000000 -2.387767 91.138130 3.200823 91.449737 4.058933 179.654478 174.353010 -7.328206 159.975885 -17.527657 -4.465415 -12.459126 78.906415 8.526422 -0.953638 21.454555 0.003115 0.000020 165.162020 2.162001 -176.270517 -19.522183 1.260304 6.238607 70.926999 -2.694945 5.769789 21.454551 -0.003096 0.000000 9.201667 -1.316085 -1.805035 8.432904 -2.497197 -3.701943 8.115214 -2.519628 -3.686827 3.370473 8.009560 0.069063 -13.558712 -8.131105 3.942048 -166.740804 -75.222126 -15.005211 -23.251676 43.574680 13.960855 -25.618686 -13.351121 1.072297 10.088261 -0.149821 17.613301 -157.155834 74.124002 24.873392 -4.810476 -68.177825 -15.603698 -32.952844 17.757116 -1.467256 10.473052 0.695191 -37.819757 
-216.624112 0.000000 45.714278 0.000000 63.824133 0.000000 -2.325121 91.127339 3.166416 91.555411 4.015321 179.601388 174.469356 -7.383533 159.708834 -17.539974 -4.392155 -12.596914 78.855185 8.579119 -1.125074 21.454557 0.003113 0.000018 165.256452 2.650779 -175.744303 -19.861195 1.051851 6.621719 71.178641 -2.995815 5.719195 21.454549 -0.003089 0.000001 9.185339 -1.306760 -1.767744 8.399161 -2.481827 -3.626396 8.081445 -2.503799 -3.611377 3.414667 7.963397 -0.123660 -13.632424 -8.003795 3.697173 -167.345075 -75.345986 -14.386547 -24.486307 42.813237 12.306302 -25.807313 -13.536641 1.087260 10.239361 -0.592791 19.054271 -157.741453 74.300472 24.270137 -6.646410 -67.970766 -13.866683 -34.017204 17.987659 -1.505703 10.562502 0.221396 -38.113522 
-216.485400 0.000000 45.889186 0.000000 63.354112 0.000000 -2.246553 91.103363 3.120765 91.687492 3.940900 179.572486 174.613144 -7.413099 159.485750 -17.580804 -4.324376 -12.758340 78.825477 8.642037 -1.318636 21.454558 0.003109 0.000017 165.299881 3.214798 -175.137689 -20.437698 0.916727 6.910266 71.463749 -3.237478 5.642521 21.454550 -0.003084 0.000001 9.172190 -1.295984 -1.739407 8.371916 -2.462786 -3.568703 8.054177 -2.484411 -3.553802 3.426893 7.952806 -0.312982 -13.653683 -7.916265 3.472217 -167.730621 -75.487274 -13.991797 -25.578262 42.168334 10.982610 -26.177869 -13.815995 1.111188 10.273147 -1.247616 19.741810 -158.267256 74.430384 23.729279 -8.470535 -67.683005 -12.247333 -35.197822 18.248261 -1.549538 10.718911 -0.382705 -38.721571 
